# xmcd
#
# Track frame offsets: 
#        151
#        19258
#        33536
#        52608
#        68109
#        85882
#        102091
#        119223
#        137592
#        156610
#
# Disc length: 2389 seconds
#
# Revision: 0
# Processed by: cddbd v1.5.1PL2 Copyright (c) Steve Scherf et al.
# Submitted via: ExactAudioCopy v0.95b4
#
DISCID=8609530a
DTITLE=Juice Newton - Platinum Collector Series
DYEAR=2004
DGENRE=Country
TTITLE0=Angel Of The Morning
TTITLE1=Love's Been A Little Bit Hard On Me
TTITLE2=The Sweetest Thing
TTITLE3=Queens Of Hearts
TTITLE4=The Trouble With Angels
TTITLE5=This Old Flame
TTITLE6=When I Get Over You
TTITLE7=Break It To Me Gently
TTITLE8=Ride' Em Cowboy
TTITLE9=Red Blooded American Girl
EXTD=
EXTT0=
EXTT1=
EXTT2=
EXTT3=
EXTT4=
EXTT5=
EXTT6=
EXTT7=
EXTT8=
EXTT9=
PLAYORDER=
